<?xml version="1.0" encoding="UTF-8" standalone="no"?><!DOCTYPE svg PUBLIC "-//W3C//DTD SVG 1.1//EN" "http://www.w3.org/Graphics/SVG/1.1/DTD/svg11.dtd"><svg width="100%" height="100%" viewBox="0 0 2084 2084" version="1.1" xmlns="http://www.w3.org/2000/svg" xmlns:xlink="http://www.w3.org/1999/xlink" xml:space="preserve" xmlns:serif="http://www.serif.com/" style="fill-rule:evenodd;clip-rule:evenodd;stroke-linejoin:round;stroke-miterlimit:2;"><path d="M368.918,1735.58c33.167,-0 49.933,-17.017 57.222,-28.602l3.28,-0c1.458,12.309 10.205,23.895 27.335,23.895l32.438,-0l-0,-36.205l-8.383,-0c-5.832,-0 -8.748,-3.258 -8.748,-8.326l0,-145.181l-43.006,0l0,23.172l-3.281,-0c-8.382,-11.586 -25.877,-27.878 -57.95,-27.878c-51.025,-0 -88.93,41.997 -88.93,99.562c-0,57.565 38.634,99.563 90.023,99.563Zm7.655,-41.274c-30.252,-0 -53.942,-22.084 -53.942,-57.927c-0,-35.118 22.961,-59.014 53.576,-59.014c29.158,0 53.577,21.362 53.577,59.014c0,32.222 -20.774,57.927 -53.211,57.927Z" style="fill:#19191d;fill-rule:nonzero;"/><path d="M514.584,1804.44l43.008,-0l-0,-97.458l3.28,-0c8.018,11.585 25.148,28.602 59.043,28.602c51.026,-0 88.202,-42.722 88.202,-99.563c0,-57.203 -39.727,-99.562 -91.117,-99.562c-32.802,-0 -48.839,17.74 -56.492,27.516l-3.281,-0l-0,-22.81l-42.643,0l0,263.275Zm96.22,-109.044c-29.522,-0 -53.941,-21.722 -53.941,-59.375c-0,-32.222 20.774,-59.375 53.212,-59.375c30.25,-0 53.941,23.533 53.941,59.375c-0,35.119 -22.962,59.375 -53.212,59.375Z" style="fill:#19191d;fill-rule:nonzero;"/><path d="M730.309,1804.44l43.007,-0l0,-97.458l3.28,-0c8.018,11.585 25.147,28.602 59.043,28.602c51.03,-0 84.662,-42.722 84.662,-99.563c0,-57.203 -36.187,-99.562 -87.572,-99.562c-32.811,-0 -48.844,17.74 -56.498,27.516l-3.28,-0l0,-22.81l-42.642,0l-0,263.275Zm96.215,-109.044c-29.516,-0 -53.937,-21.722 -53.937,-59.375c0,-32.222 20.771,-59.375 53.217,-59.375c30.245,-0 53.94,23.533 53.94,59.375c0,35.119 -22.965,59.375 -53.22,59.375Z" style="fill:#19191d;fill-rule:nonzero;"/><path d="M977.151,1735.28l60.866,0l34.625,-148.8l2.18,-0l34.626,148.8l60.5,0l48.455,-189.711l-43.345,-0l-34.625,149.162l-3.285,-0l-34.625,-149.162l-57.216,-0l-34.99,149.162l-3.285,-0l-34.261,-149.162l-45.92,-0l50.3,189.711Z" style="fill:#19191d;fill-rule:nonzero;"/><path d="M1240.19,1735.28l43,0l-0,-93.77c-0,-35.842 16.77,-57.926 48.11,-57.926l18.951,-0l-0,-42.722l-14.216,0c-24.415,0 -43,16.654 -50.29,32.584l-2.92,-0l-0,-27.877l-42.635,-0l-0,189.711Z" style="fill:#19191d;fill-rule:nonzero;"/><path d="M1563.68,1735.28l33.53,0l-0,-38.015l-33.165,0c-13.12,0 -18.596,-5.792 -18.596,-19.188l0,-94.856l53.941,-0l-0,-37.652l-53.941,-0l0,-53.221l-40.82,0l-0,53.221l-35.71,-0l-0,37.652l33.165,-0l0,95.218c0,40.187 24.415,56.841 61.596,56.841Z" style="fill:#19191d;fill-rule:nonzero;"/><path d="M1712.59,1735.58c39.735,-0 74.716,-19.551 87.116,-59.014l-39.371,-9.413c-6.925,20.998 -26.97,31.859 -48.1,31.859c-31.35,0 -52.126,-20.274 -52.491,-52.133l144.697,-0l-0,-11.948c-0,-56.479 -35.356,-98.476 -93.666,-98.476c-51.396,-0 -95.491,40.187 -95.491,99.924c-0,57.927 38.995,99.201 97.306,99.201Zm-52.481,-119.838c2.555,-22.808 23.331,-41.996 50.666,-41.996c26.24,-0 47.745,16.291 49.925,41.996l-100.591,0Z" style="fill:#19191d;fill-rule:nonzero;"/><path d="M1449.8,1735.28l-43.01,0l-0,-152.059l-33.531,-0l0,-37.652l76.541,-0l0,189.711Z" style="fill:#19191d;"/><path d="M1425.09,1519.24c15.675,0 27.335,-11.585 27.335,-26.791c0,-14.844 -11.66,-26.429 -27.335,-26.429c-15.665,-0 -27.335,11.585 -27.335,26.429c-0,15.206 11.67,26.791 27.335,26.791Z" style="fill:#19191d;fill-rule:nonzero;"/><path d="M1638.76,1076.64l0,266.261l-668.888,0c-194.877,0 -365.03,-107.083 -456.066,-266.261c-13.234,-23.139 -24.817,-47.417 -34.533,-72.616c-19.074,-49.377 -31.064,-102.366 -34.701,-157.65l-0,-71.988c0.79,-12.321 2.034,-24.545 3.661,-36.624c3.327,-24.784 8.353,-49.038 14.958,-72.616c62.485,-223.513 265.665,-387.288 506.681,-387.288c241.017,0 444.171,163.775 506.656,387.288l-286.005,-0c-46.956,-72.858 -128.226,-121.027 -220.651,-121.027c-92.424,0 -173.695,48.169 -220.65,121.027c-14.311,22.149 -25.416,46.572 -32.691,72.616c-6.461,23.094 -9.907,47.446 -9.907,72.62c-0,76.318 31.733,145.109 82.61,193.642c47.146,45.046 110.708,72.616 180.638,72.616l668.888,-0Z" style="fill:#fd366e;fill-rule:nonzero;"/><path d="M1638.76,737.762l0,266.262l-488.253,-0c50.876,-48.533 82.612,-117.324 82.612,-193.646c-0,-25.174 -3.447,-49.525 -9.909,-72.616l415.55,0Z" style="fill:#fd366e;fill-rule:nonzero;"/></svg>