<?xml version="1.0" encoding="UTF-8" standalone="no"?><!DOCTYPE svg PUBLIC "-//W3C//DTD SVG 1.1//EN" "http://www.w3.org/Graphics/SVG/1.1/DTD/svg11.dtd"><svg width="100%" height="100%" viewBox="0 0 2084 2084" version="1.1" xmlns="http://www.w3.org/2000/svg" xmlns:xlink="http://www.w3.org/1999/xlink" xml:space="preserve" xmlns:serif="http://www.serif.com/" style="fill-rule:evenodd;clip-rule:evenodd;stroke-linejoin:round;stroke-miterlimit:2;"><g id="XMLID_1_"><path id="Shadow" d="M1635.56,765.683c-3.07,-3.261 -6.331,-6.523 -9.593,-9.593c-3.262,-3.069 -6.331,-6.523 -9.593,-9.592c-3.261,-3.07 -6.331,-6.523 -9.592,-9.593c-3.262,-3.07 -6.332,-6.523 -9.593,-9.593c-3.262,-3.07 -6.331,-6.523 -9.593,-9.593c-3.262,-3.069 -6.331,-6.523 -9.593,-9.592c-3.261,-3.07 -6.331,-6.523 -9.592,-9.593c95.128,93.489 149.681,220.803 151.757,354.164c-0,317.904 -322.7,576.525 -719.457,576.525c-222.168,-0 -420.93,-81.155 -553.118,-208.355l67.15,67.149c131.996,132.572 335.17,217.948 562.71,217.948c396.757,-0 719.457,-258.621 719.457,-575.565c-0,-135.45 -58.324,-263.801 -161.35,-364.717Z" style="fill-rule:nonzero;"/><path id="Background" d="M1672.2,1052.7c0,291.812 -300.637,528.369 -671.493,528.369c-370.855,0 -671.492,-236.557 -671.492,-528.369c-0,-180.919 115.113,-340.734 292.003,-435.511c176.89,-94.776 287.015,-191.855 379.489,-191.855c92.475,0 171.519,79.236 379.49,191.855c176.89,94.777 292.003,254.592 292.003,435.511Z" style="fill:#fbf0df;fill-rule:nonzero;"/><path id="Bottom_Shadow" d="M1672.2,1052.7c-0.093,-37.486 -5.256,-74.789 -15.348,-110.892c-52.377,638.877 -831.692,669.574 -1138.08,478.487c137.704,106.733 307.734,163.455 481.939,160.774c370.281,0 671.493,-236.941 671.493,-528.369Z" style="fill:#f6dece;fill-rule:nonzero;"/><path id="Light_Shine" d="M742.278,582.078c85.759,-51.417 199.721,-147.92 311.764,-148.112c-17.236,-5.572 -35.222,-8.483 -53.336,-8.634c-46.428,0 -95.927,23.982 -158.28,60.051c-21.68,12.662 -44.127,26.668 -67.917,41.249c-44.702,27.627 -95.927,58.899 -153.484,90.172c-182.646,98.805 -291.811,261.69 -291.811,435.894l-0,22.831c116.264,-410.762 327.496,-442.034 413.064,-493.451Z" style="fill:#fffefc;fill-rule:nonzero;"/><path id="Top" d="M945.452,473.872c0.543,91.619 -38.934,179.057 -108.014,239.243c-5.372,4.796 -1.151,14.005 5.755,11.319c64.656,-25.133 151.95,-100.34 115.113,-252.097c-1.534,-8.634 -12.854,-6.331 -12.854,1.535Zm43.551,-0c47.479,77.468 58.772,171.953 30.889,258.428c-2.302,6.715 5.947,12.471 10.552,6.907c42.016,-53.719 78.661,-160.391 -31.081,-275.504c-5.563,-4.988 -14.197,2.686 -10.36,9.401l0,0.768Zm52.952,-3.262c74.339,52.63 122.316,134.995 131.421,225.622c-0.03,0.251 -0.045,0.503 -0.045,0.756c-0,3.473 2.858,6.331 6.331,6.331c2.964,-0 5.551,-2.082 6.185,-4.977c17.65,-66.957 7.674,-181.111 -137.561,-240.394c-7.674,-3.07 -12.662,7.29 -6.331,11.895l0,0.767Zm-354.164,199.529c88.394,-26.408 161.491,-89.242 200.872,-172.669c3.453,-6.907 14.389,-4.221 12.663,3.453c-33.191,153.484 -144.275,185.524 -213.343,181.303c-7.291,0.192 -7.099,-9.976 -0.192,-12.087Z" style="fill:#ccbea7;"/><path id="Outline" d="M1000.71,1629.22c-396.756,-0 -719.456,-258.621 -719.456,-576.525c-0,-191.855 118.566,-370.855 317.136,-478.102c57.557,-30.697 106.864,-61.586 150.798,-88.637c24.174,-14.965 47.005,-28.971 69.068,-42.017c67.341,-39.906 124.898,-66.573 182.454,-66.573c57.557,-0 107.823,23.022 170.751,60.242c19.186,10.936 38.371,22.831 58.9,35.877c47.772,29.546 101.683,62.928 172.669,101.108c198.57,107.247 317.137,286.055 317.137,478.102c-0,317.904 -322.7,576.525 -719.457,576.525Zm0,-1203.89c-46.428,0 -95.927,23.982 -158.28,60.051c-21.68,12.662 -44.127,26.668 -67.917,41.249c-44.702,27.627 -95.927,58.899 -153.484,90.172c-182.646,98.805 -291.811,261.69 -291.811,435.894c-0,291.428 301.212,528.561 671.492,528.561c370.281,-0 671.493,-237.133 671.493,-528.561c0,-174.204 -109.165,-337.089 -292.003,-435.511c-72.521,-38.371 -129.119,-74.439 -174.972,-102.834c-20.912,-12.854 -40.098,-24.749 -57.557,-35.301c-58.132,-34.534 -100.532,-53.72 -146.961,-53.72Z" style="fill-rule:nonzero;"/><g id="Background-2"><path d="M1135.96,1192.75c-8.617,35.294 -28.242,66.949 -56.021,90.363c-20.856,20.217 -47.869,32.913 -76.742,36.069c-29.741,-2.656 -57.703,-15.384 -79.237,-36.069c-27.496,-23.525 -46.844,-55.168 -55.254,-90.363c-0.081,-0.606 -0.121,-1.216 -0.121,-1.827c-0,-7.578 6.236,-13.813 13.813,-13.813c0.554,-0 1.107,0.033 1.657,0.099l236.749,0c0.485,-0.051 0.973,-0.077 1.461,-0.077c7.578,-0 13.814,6.235 13.814,13.813c-0,0.604 -0.04,1.206 -0.119,1.805Z" style="fill:#b71422;fill-rule:nonzero;"/></g><g id="Tongue"><path id="Background-3" d="M923.964,1284.65c21.491,20.697 49.351,33.545 79.045,36.453c29.626,-2.95 57.412,-15.795 78.852,-36.453c6.86,-6.394 13.27,-13.253 19.186,-20.528c-23.877,-27.088 -57.92,-43.137 -94.009,-44.319c-38.767,0.918 -74.69,20.891 -95.928,53.336c4.413,4.029 8.25,7.866 12.854,11.511Z" style="fill:#ff6164;fill-rule:nonzero;"/><path id="Outline-2" d="M927.034,1269.5c19.258,-24.893 48.916,-39.616 80.387,-39.906c28.723,0.847 56.113,12.419 76.742,32.423c4.413,-4.796 8.634,-9.784 12.663,-14.773c-24.4,-23.237 -56.674,-36.462 -90.364,-37.028c-36.445,0.315 -70.896,16.942 -93.817,45.278c4.536,4.929 9.34,9.604 14.389,14.006Z" style="fill-rule:nonzero;"/></g><path id="Outline-3" d="M1002.43,1330.7c-31.964,-2.8 -62.06,-16.327 -85.375,-38.371c-29.694,-25.114 -50.604,-59.068 -59.667,-96.887c-1.316,-6.815 0.519,-13.873 4.988,-19.185c5.324,-6.43 13.336,-10.045 21.68,-9.785l236.749,0c8.327,-0.175 16.302,3.424 21.679,9.785c4.427,5.331 6.193,12.398 4.797,19.185c-9.064,37.819 -29.974,71.773 -59.667,96.887c-23.265,22.005 -53.288,35.529 -85.184,38.371Zm-118.374,-141.972c-3.07,-0 -3.838,1.343 -4.029,1.726c8.108,32.796 26.459,62.17 52.376,83.841c18.951,18.67 43.603,30.49 70.027,33.575c26.356,-3.05 50.98,-14.721 70.027,-33.191c25.836,-21.708 44.116,-51.075 52.185,-83.841c-0.852,-1.249 -2.338,-1.918 -3.837,-1.727l-236.749,-0.383Z" style="fill-rule:nonzero;"/><ellipse id="Right_Blush" cx="1292.71" cy="1138.65" rx="112.235" ry="65.998" style="fill:#febbd0;"/><ellipse id="Left_Bluch" cx="711.965" cy="1138.65" rx="112.235" ry="65.998" style="fill:#febbd0;"/><path id="Eyes" d="M764.725,1112.17c0.064,0.001 0.128,0.001 0.192,0.001c57.992,-0 105.712,-47.721 105.712,-105.713c-0,-57.992 -47.72,-105.712 -105.712,-105.712c-57.992,0 -105.712,47.72 -105.713,105.712c0,57.92 47.601,105.607 105.521,105.712Zm475.225,0c0.255,0.002 0.511,0.003 0.767,0.003c57.992,0 105.712,-47.72 105.712,-105.712c0,-57.992 -47.72,-105.712 -105.712,-105.712c-57.991,-0 -105.711,47.718 -105.712,105.709c-0.106,57.743 47.203,105.398 104.945,105.712Z"/><path id="Iris" d="M732.109,1013.18c0.064,0.001 0.128,0.001 0.192,0.001c21.787,-0 39.714,-17.928 39.714,-39.714c0,-21.787 -17.927,-39.714 -39.714,-39.714c-21.786,-0 -39.714,17.927 -39.714,39.713c-0,21.714 17.808,39.609 39.522,39.714Zm474.842,0c-0,0 0.511,0.001 0.575,0.001c21.787,-0 39.714,-17.928 39.714,-39.714c0,-21.787 -17.927,-39.714 -39.714,-39.714c-21.786,-0 -39.714,17.927 -39.714,39.713c-0.002,21.571 17.57,39.402 39.139,39.714Z" style="fill:#fff;"/></g></svg>