<?xml version="1.0" encoding="UTF-8" standalone="no"?><!DOCTYPE svg PUBLIC "-//W3C//DTD SVG 1.1//EN" "http://www.w3.org/Graphics/SVG/1.1/DTD/svg11.dtd"><svg width="100%" height="100%" viewBox="0 0 2084 2084" version="1.1" xmlns="http://www.w3.org/2000/svg" xmlns:xlink="http://www.w3.org/1999/xlink" xml:space="preserve" xmlns:serif="http://www.serif.com/" style="fill-rule:evenodd;clip-rule:evenodd;stroke-linejoin:round;stroke-miterlimit:2;"><g id="XMLID_1_"><path d="M1778.65,624.07c0.547,2.025 0.827,4.113 0.832,6.211l0,326.067c0,8.508 -4.566,16.392 -11.947,20.625l-273.674,157.565l-0,312.308c-0,8.5 -4.517,16.345 -11.887,20.625l-571.272,328.861c-1.308,0.743 -2.734,1.218 -4.161,1.723c-0.535,0.179 -1.04,0.505 -1.605,0.654c-3.993,1.052 -8.191,1.052 -12.184,0c-0.654,-0.178 -1.248,-0.535 -1.872,-0.773c-1.308,-0.475 -2.675,-0.891 -3.923,-1.604l-571.153,-328.861c-7.376,-4.238 -11.941,-12.118 -11.947,-20.625l0,-978.202c0,-2.14 0.297,-4.22 0.832,-6.241c0.179,-0.684 0.595,-1.308 0.832,-1.991c0.446,-1.248 0.862,-2.526 1.516,-3.685c0.446,-0.773 1.1,-1.397 1.635,-2.11c0.683,-0.951 1.307,-1.932 2.11,-2.764c0.683,-0.684 1.575,-1.189 2.347,-1.783c0.862,-0.713 1.635,-1.486 2.616,-2.051l0.029,0l285.592,-164.43c7.35,-4.23 16.424,-4.23 23.774,-0l285.592,164.43l0.059,0c0.951,0.595 1.753,1.338 2.615,2.021c0.773,0.594 1.635,1.129 2.318,1.783c0.832,0.862 1.427,1.843 2.14,2.794c0.505,0.713 1.189,1.337 1.605,2.11c0.683,1.188 1.07,2.437 1.545,3.685c0.238,0.683 0.654,1.307 0.832,2.021c0.547,2.025 0.827,4.113 0.832,6.211l0,610.975l237.983,-137.03l0,-312.338c0,-2.08 0.297,-4.19 0.832,-6.181c0.208,-0.714 0.595,-1.338 0.832,-2.021c0.476,-1.248 0.892,-2.526 1.546,-3.685c0.445,-0.773 1.099,-1.397 1.604,-2.11c0.714,-0.951 1.308,-1.932 2.14,-2.764c0.684,-0.684 1.546,-1.189 2.318,-1.783c0.892,-0.713 1.664,-1.486 2.615,-2.051l0.03,0l285.621,-164.43c7.349,-4.236 16.426,-4.236 23.775,-0l285.591,164.43c1.011,0.595 1.783,1.338 2.675,2.021c0.743,0.594 1.605,1.129 2.288,1.783c0.832,0.862 1.427,1.843 2.14,2.794c0.535,0.713 1.188,1.337 1.605,2.11c0.683,1.159 1.069,2.437 1.545,3.685c0.267,0.683 0.654,1.307 0.832,2.021Zm-46.776,318.519l-0,-271.149l-99.943,57.535l-138.07,79.496l-0,271.148l238.042,-137.03l-0.029,-0Zm-285.592,490.498l0,-271.327l-135.812,77.564l-387.822,221.341l0,273.883l523.634,-301.461Zm-1094.82,-923.284l-0,923.284l523.574,301.431l0,-273.823l-273.526,-154.802l-0.089,-0.059l-0.119,-0.06c-0.921,-0.535 -1.694,-1.307 -2.556,-1.961c-0.743,-0.595 -1.604,-1.07 -2.258,-1.724l-0.06,-0.089c-0.772,-0.743 -1.307,-1.664 -1.961,-2.496c-0.594,-0.803 -1.308,-1.486 -1.783,-2.318l-0.03,-0.09c-0.535,-0.891 -0.862,-1.961 -1.248,-2.971c-0.386,-0.892 -0.892,-1.724 -1.129,-2.675l-0,-0.03c-0.297,-1.129 -0.357,-2.318 -0.476,-3.477c-0.119,-0.891 -0.356,-1.783 -0.356,-2.674l-0,-638.435l-138.041,-79.526l-99.942,-57.475l-0,-0.03Zm261.817,-178.13l-237.954,136.971l237.894,136.971l237.924,-137.001l-237.924,-136.941l0.06,-0Zm123.746,854.812l138.041,-79.466l-0,-597.216l-99.942,57.535l-138.071,79.496l0,597.216l99.972,-57.565Zm733.057,-693.175l-237.923,136.971l237.923,136.971l237.894,-137.001l-237.894,-136.941Zm-23.804,315.161l-138.07,-79.496l-99.942,-57.535l-0,271.149l138.04,79.466l99.972,57.564l0,-271.148Zm-547.467,611.034l348.98,-199.23l174.445,-99.556l-237.745,-136.882l-273.734,157.596l-249.484,143.628l237.538,134.444Z" style="fill:#ff2d20;"/></g></svg>