<?xml version="1.0" encoding="UTF-8" standalone="no"?><!DOCTYPE svg PUBLIC "-//W3C//DTD SVG 1.1//EN" "http://www.w3.org/Graphics/SVG/1.1/DTD/svg11.dtd"><svg width="100%" height="100%" viewBox="0 0 2084 2084" version="1.1" xmlns="http://www.w3.org/2000/svg" xmlns:xlink="http://www.w3.org/1999/xlink" xml:space="preserve" xmlns:serif="http://www.serif.com/" style="fill-rule:evenodd;clip-rule:evenodd;stroke-linejoin:round;stroke-miterlimit:2;"><path d="M1149.47,1264.84c-25.64,32.289 -77.628,14.598 -78.246,-26.631l-9.034,-603.019l405.469,0c73.442,0 114.401,84.825 68.734,142.343l-386.923,487.307Z" style="fill:url(#_Linear1);fill-rule:nonzero;"/><path d="M1149.47,1264.84c-25.64,32.289 -77.628,14.598 -78.246,-26.631l-9.034,-603.019l405.469,0c73.442,0 114.401,84.825 68.734,142.343l-386.923,487.307Z" style="fill:url(#_Linear2);fill-rule:nonzero;"/><path d="M984.57,294.535c25.64,-32.293 77.628,-14.599 78.246,26.631l3.959,603.018l-400.395,-0c-73.443,-0 -114.404,-84.826 -68.735,-142.343l386.925,-487.306Z" style="fill:#3ecf8e;fill-rule:nonzero;"/><path d="M278.895,1688.27c2.127,19.895 20.223,53.999 72.74,53.999c45.772,0 67.775,-29.131 67.775,-57.551c0,-25.579 -17.389,-46.539 -51.806,-53.645l-24.841,-5.328c-9.579,-1.776 -15.966,-7.105 -15.966,-15.631c0,-9.948 9.935,-17.408 22.355,-17.408c19.869,0 27.321,13.145 28.741,23.448l39.386,-8.882c-2.128,-18.829 -18.807,-50.446 -68.482,-50.446c-37.613,-0 -65.289,25.933 -65.289,57.195c0,24.513 15.255,44.763 48.965,52.223l23.065,5.329c13.483,2.842 18.807,9.237 18.807,17.053c0,9.237 -7.452,17.407 -23.065,17.407c-20.579,0 -30.872,-12.789 -31.934,-26.644l-40.451,8.881Z" style="fill:#1f1f1f;fill-rule:nonzero;"/><path d="M570.226,1736.94l45.065,-0c-0.711,-6.04 -1.776,-18.118 -1.776,-31.619l-0,-143.168l-47.196,0l-0,101.603c-0,20.25 -12.062,34.46 -32.996,34.46c-22,0 -31.938,-15.631 -31.938,-35.17l0,-100.893l-47.192,0l-0,110.485c-0,38.012 24.127,68.92 66.354,68.92c18.448,0 38.682,-7.105 48.262,-23.447c-0,7.105 0.706,15.276 1.417,18.829Z" style="fill:#1f1f1f;fill-rule:nonzero;"/><path d="M711.072,1804.44l-0,-84.551c8.513,11.723 26.258,21.316 50.389,21.316c49.32,-0 82.316,-39.08 82.316,-92.013c-0,-51.867 -29.448,-90.945 -80.544,-90.945c-26.255,-0 -45.772,11.723 -53.579,25.223l0,-21.316l-45.771,0l-0,242.286l47.189,-0Zm86.223,-154.892c-0,31.263 -19.159,49.38 -43.289,49.38c-24.124,0 -43.641,-18.473 -43.641,-49.38c-0,-30.908 19.517,-49.026 43.641,-49.026c24.13,0 43.289,18.118 43.289,49.026Z" style="fill:#1f1f1f;fill-rule:nonzero;"/><path d="M870.504,1689.34c-0,27.355 22.706,52.579 59.968,52.579c25.896,-0 42.575,-12.08 51.444,-25.935c0,6.75 0.71,16.342 1.776,20.961l43.289,-0c-1.065,-6.04 -2.124,-18.474 -2.124,-27.71l0,-85.973c0,-35.17 -20.582,-66.432 -75.933,-66.432c-46.841,-0 -72.038,30.196 -74.872,57.551l41.869,8.881c1.42,-15.276 12.775,-28.42 33.351,-28.42c19.875,-0 29.455,10.302 29.455,22.736c-0,6.04 -3.19,11.014 -13.128,12.434l-42.934,6.395c-29.096,4.263 -52.161,21.67 -52.161,52.933Zm69.899,17.408c-15.255,-0 -22.71,-9.947 -22.71,-20.25c-0,-13.5 9.579,-20.25 21.648,-22.026l39.386,-6.039l-0,7.815c-0,30.908 -18.452,40.5 -38.324,40.5Z" style="fill:#1f1f1f;fill-rule:nonzero;"/><path d="M1118.2,1736.94l0,-21.315c9.221,14.921 27.672,25.579 51.803,25.579c49.682,-0 82.327,-39.434 82.327,-92.368c-0,-51.867 -29.455,-91.301 -80.551,-91.301c-25.907,0 -45.065,11.369 -52.872,23.802l0,-101.603l-46.482,-0l0,257.206l45.775,0Zm86.93,-87.749c0,31.974 -19.158,49.736 -43.289,49.736c-23.772,0 -43.641,-18.117 -43.641,-49.736c0,-31.973 19.869,-49.38 43.641,-49.38c24.131,-0 43.289,17.407 43.289,49.38Z" style="fill:#1f1f1f;fill-rule:nonzero;"/><path d="M1279.05,1689.34c-0,27.355 22.706,52.579 59.965,52.579c25.899,-0 42.582,-12.08 51.447,-25.935c0,6.75 0.714,16.342 1.776,20.961l43.289,-0c-1.058,-6.04 -2.124,-18.474 -2.124,-27.71l0,-85.973c0,-35.17 -20.582,-66.432 -75.937,-66.432c-46.837,-0 -72.03,30.196 -74.868,57.551l41.865,8.881c1.424,-15.276 12.779,-28.42 33.355,-28.42c19.876,-0 29.455,10.302 29.455,22.736c-0,6.04 -3.193,11.014 -13.131,12.434l-42.931,6.395c-29.096,4.263 -52.161,21.67 -52.161,52.933Zm69.903,17.408c-15.259,-0 -22.714,-9.947 -22.714,-20.25c-0,-13.5 9.579,-20.25 21.648,-22.026l39.386,-6.039l-0,7.815c-0,30.908 -18.452,40.5 -38.32,40.5Z" style="fill:#1f1f1f;fill-rule:nonzero;"/><path d="M1466.07,1688.27c2.124,19.895 20.224,53.999 72.737,53.999c45.775,0 67.771,-29.131 67.771,-57.551c0,-25.579 -17.382,-46.539 -51.802,-53.645l-24.842,-5.328c-9.579,-1.776 -15.961,-7.105 -15.961,-15.631c-0,-9.948 9.931,-17.408 22.351,-17.408c19.876,0 27.324,13.145 28.748,23.448l39.382,-8.882c-2.131,-18.829 -18.806,-50.446 -68.481,-50.446c-37.617,-0 -65.289,25.933 -65.289,57.195c-0,24.513 15.251,44.763 48.965,52.223l23.065,5.329c13.486,2.842 18.806,9.237 18.806,17.053c0,9.237 -7.451,17.407 -23.065,17.407c-20.582,0 -30.868,-12.789 -31.934,-26.644l-40.451,8.881Z" style="fill:#1f1f1f;fill-rule:nonzero;"/><path d="M1678.25,1629.65c1.066,-15.986 14.552,-34.46 39.034,-34.46c26.965,-0 38.324,17.053 39.034,34.46l-78.068,-0Zm82.682,45.473c-5.679,15.631 -17.745,26.644 -39.744,26.644c-23.421,0 -42.938,-16.697 -43.996,-39.788l124.898,-0c0,-0.712 0.707,-7.816 0.707,-14.566c-0,-56.131 -32.286,-90.59 -86.223,-90.59c-44.706,-0 -85.871,36.235 -85.871,92.011c-0,58.972 42.223,93.432 90.13,93.432c42.933,0 70.612,-25.223 79.485,-55.42l-39.386,-11.723Z" style="fill:#1f1f1f;fill-rule:nonzero;"/><defs><linearGradient id="_Linear1" x1="0" y1="0" x2="1" y2="0" gradientUnits="userSpaceOnUse" gradientTransform="matrix(360.367,151.137,-151.137,360.367,1062.19,768.897)"><stop offset="0" style="stop-color:#249361;stop-opacity:1"/><stop offset="1" style="stop-color:#3ecf8e;stop-opacity:1"/></linearGradient><linearGradient id="_Linear2" x1="0" y1="0" x2="1" y2="0" gradientUnits="userSpaceOnUse" gradientTransform="matrix(164.346,309.373,-309.373,164.346,902.424,550.147)"><stop offset="0" style="stop-color:#000;stop-opacity:0.2"/><stop offset="1" style="stop-color:#000;stop-opacity:0"/></linearGradient></defs></svg>